<svg version="1.1" id="Layer_1" xmlns="http://www.w3.org/2000/svg" xmlns:xlink="http://www.w3.org/1999/xlink" x="0px" y="0px"
	 width="100%" viewBox="0 0 284 283" enable-background="new 0 0 284 283" xml:space="preserve">
<path fill="#FDFDFE" opacity="1.000000" stroke="none" 
	d="
M1.000000,174.000000 
	C1.000000,153.979111 1.000000,133.958206 1.366818,113.401489 
	C2.434184,111.266808 3.365387,109.728088 3.800297,108.059975 
	C9.329863,86.851151 19.068125,67.699440 33.433365,51.264370 
	C55.939083,25.515886 84.288490,9.719336 118.110405,3.892273 
	C119.207146,3.703318 120.042694,1.998292 121.000000,0.999999 
	C133.687561,1.000000 146.375122,1.000000 159.547363,1.400583 
	C161.080887,2.534657 162.033447,3.642012 163.194183,3.940943 
	C170.718231,5.878653 178.503052,7.023549 185.802338,9.573502 
	C209.168579,17.736332 229.451920,30.650587 245.997375,49.373356 
	C258.482056,63.500950 268.300995,79.108002 274.034302,97.047646 
	C277.243622,107.089516 279.460724,117.448479 282.000000,127.185661 
	C282.000000,85.516304 282.000000,43.258152 282.000000,1.000000 
	C285.438080,0.076872 285.024414,2.319218 285.023224,4.500012 
	C284.993683,58.999996 285.000000,113.500000 285.000000,168.000000 
	C285.000000,205.500000 285.016357,243.000046 284.926849,280.499817 
	C284.923950,281.717468 286.533142,284.471313 282.499390,283.531342 
	C281.998810,242.130508 281.998810,201.198349 281.998810,160.266174 
	C278.827057,181.184753 271.800720,200.565445 260.712524,218.375580 
	C249.611954,236.205566 235.348251,251.029755 217.481369,262.367157 
	C203.575043,271.191406 188.742630,277.556946 172.724869,281.304504 
	C171.032333,281.700500 169.569427,283.077911 168.000000,284.000000 
	C150.312439,284.000000 132.624878,284.000000 114.396370,283.626923 
	C113.035904,282.834991 112.260017,282.214478 111.390572,282.026337 
	C75.608322,274.283417 46.998566,255.437744 25.622320,225.869675 
	C15.135933,211.364700 7.714556,195.241898 3.345530,177.787399 
	C3.002055,176.415192 1.801970,175.257431 1.000000,174.000000 
M201.425690,182.799774 
	C203.041092,188.552460 206.936264,184.701996 210.261810,185.433258 
	C210.261810,176.709641 210.343979,168.604095 210.168365,160.504135 
	C210.143585,159.361237 208.774414,157.245255 208.175705,157.296921 
	C206.010651,157.483749 203.908813,158.403412 201.592239,159.587204 
	C201.639252,159.772476 201.686279,159.957748 201.448959,160.680573 
	C201.543289,161.062714 201.637634,161.444870 201.547668,162.776184 
	C201.608063,169.248138 201.668472,175.720108 201.425690,182.799774 
M104.828743,186.317093 
	C106.221855,186.281769 107.614960,186.246429 109.384102,186.650894 
	C110.329338,186.226532 111.274574,185.802170 112.878815,185.119751 
	C118.488861,182.702393 122.203094,178.746796 122.662437,172.435562 
	C123.213516,164.864029 118.431252,158.623688 110.867310,156.746811 
	C103.037056,154.803848 94.836609,158.238037 91.722282,164.764359 
	C88.327728,171.877945 90.451729,178.540100 98.056999,184.781586 
	C100.036583,185.261322 102.016167,185.741074 104.828743,186.317093 
M219.558136,148.936737 
	C219.630753,154.270523 219.703384,159.604294 219.490677,165.510345 
	C220.520004,165.864075 221.542755,166.489685 222.580032,166.514771 
	C224.719574,166.566483 226.948227,165.869019 228.992783,166.256912 
	C232.452621,166.913284 234.746033,169.009369 233.985886,172.973740 
	C233.328583,176.401871 229.898697,178.173584 226.240387,177.015808 
	C224.707733,176.530792 223.252991,175.799652 221.830231,175.208435 
	C216.211441,182.692413 216.635941,183.942719 225.253937,186.020035 
	C225.901123,186.176025 226.545624,186.372482 227.203217,186.451492 
	C235.268600,187.420441 242.957672,181.871231 244.141144,174.245071 
	C245.343475,166.497299 240.767319,160.499054 232.246643,158.611603 
	C231.077286,158.352585 229.938553,157.955276 228.785645,157.621979 
	C228.789200,157.021469 228.792755,156.420944 228.796310,155.820435 
	C232.140854,155.536423 235.485397,155.252411 238.918381,154.960876 
	C238.918381,152.040817 238.918381,149.350830 238.918381,146.380447 
	C232.974823,146.380447 227.485519,146.318619 222.001083,146.454163 
	C221.267914,146.472260 220.559402,147.488846 219.558136,148.936737 
M199.737381,87.757957 
	C181.059677,64.936256 140.658707,64.838394 124.405884,100.961555 
	C122.508728,99.977829 120.649529,98.948112 118.736023,98.031776 
	C100.778580,89.432465 78.931900,101.665062 77.312714,121.510742 
	C76.981911,125.565361 75.709015,127.098801 71.903366,128.185379 
	C64.869247,130.193726 59.646221,134.769623 55.959099,141.187683 
	C60.758209,144.125732 64.222870,144.516678 68.193886,140.304672 
	C70.589218,137.763962 74.760941,136.288040 78.371094,135.627945 
	C86.200371,134.196442 86.262512,134.536301 85.848785,126.841057 
	C85.351944,117.600060 89.719528,110.165901 97.962082,106.222778 
	C106.174515,102.294067 114.487137,103.727943 121.391159,110.252274 
	C122.598007,111.392754 123.679771,112.785370 125.093781,113.561394 
	C127.855957,115.077301 130.270386,114.769997 131.306091,111.258827 
	C131.729828,109.822258 132.035278,108.350845 132.457123,106.913658 
	C137.373199,90.165024 153.635437,78.856979 169.841415,80.905495 
	C192.014038,83.708214 205.257874,103.684402 199.600845,125.792778 
	C198.116119,131.595291 199.115341,132.242722 204.859604,133.751480 
	C208.942520,134.823883 213.577850,136.913040 216.097519,140.049805 
	C219.461258,144.237350 222.627243,143.957581 227.269226,142.922058 
	C224.807556,134.930405 220.420013,129.272537 212.890976,126.417603 
	C210.221848,125.405495 209.009827,124.306473 209.419342,121.034447 
	C210.937164,108.907570 207.746368,97.953850 199.737381,87.757957 
M193.943222,156.537689 
	C193.943268,155.373093 193.943512,154.208496 193.943344,153.043900 
	C193.942215,145.379822 193.379105,144.966537 185.091064,147.035126 
	C185.091064,150.165192 185.091064,153.427246 185.091064,157.082230 
	C182.947784,156.773392 181.350891,156.488617 179.741791,156.320404 
	C170.258667,155.328979 161.967941,161.774353 161.384964,170.564621 
	C160.858063,178.509598 167.975769,185.896805 176.754730,186.516373 
	C186.026367,187.170715 193.696655,180.284470 193.918549,171.002869 
	C194.025894,166.513351 193.941025,162.019272 193.943222,156.537689 
M43.303074,183.250931 
	C52.522732,188.176102 60.491089,187.218033 67.190681,180.043747 
	C65.318550,178.067062 63.423851,176.066544 61.603912,174.144958 
	C54.114841,178.290070 49.851231,178.069870 46.123722,173.578644 
	C42.540958,169.261810 42.510464,162.619598 46.053745,158.344269 
	C49.840012,153.775772 53.916748,153.505981 61.165840,157.353577 
	C63.235985,155.514359 65.311409,153.670441 68.835663,150.539337 
	C63.201862,148.548691 58.920048,146.133621 54.428066,145.643082 
	C46.002415,144.722946 38.524921,150.250031 35.570194,158.327850 
	C32.220215,167.486237 34.810677,176.408463 43.303074,183.250931 
M138.351181,158.346344 
	C135.732437,157.873947 133.113693,157.401550 130.099106,156.857758 
	C130.099106,164.511337 129.553604,171.319870 130.269897,177.992981 
	C130.853928,183.433990 135.986816,186.462906 142.205200,186.420578 
	C148.576660,186.377213 153.279327,183.026871 154.089508,177.250214 
	C154.685364,173.001633 154.535812,168.637375 154.569122,164.323502 
	C154.629883,156.457321 154.473297,156.368759 145.657043,157.862610 
	C145.657043,162.826157 145.953964,167.958374 145.496811,173.022507 
	C145.335693,174.807236 143.329285,176.425354 142.165390,178.119537 
	C140.977661,176.462067 138.956604,174.895355 138.764328,173.129486 
	C138.263229,168.527542 138.563797,163.838303 138.351181,158.346344 
M76.956207,146.435699 
	C76.141640,147.769058 74.646782,149.089279 74.620720,150.437851 
	C74.422050,160.720566 74.659660,171.012146 74.429558,181.293564 
	C74.346352,185.011246 75.884026,185.626923 79.126411,185.696106 
	C82.773247,185.773941 83.566582,184.287781 83.506981,180.971466 
	C83.331131,171.185837 83.184990,161.385193 83.555534,151.610458 
	C83.734375,146.892731 81.906128,145.702820 76.956207,146.435699 
M201.257202,147.506744 
	C200.892349,152.474686 203.576111,155.423843 207.042130,153.608292 
	C208.423294,152.884827 209.920349,151.005997 210.005188,149.572678 
	C210.089478,148.148529 208.618942,145.530975 207.557755,145.382339 
	C205.669128,145.117828 203.574966,146.320755 201.257202,147.506744 
z"/>
<path fill="#F0F0F0" opacity="1.000000" stroke="none" 
	d="
M281.531342,1.000000 
	C282.000000,43.258152 282.000000,85.516304 282.000000,127.185661 
	C279.460724,117.448479 277.243622,107.089516 274.034302,97.047646 
	C268.300995,79.108002 258.482056,63.500950 245.997375,49.373356 
	C229.451920,30.650587 209.168579,17.736332 185.802338,9.573502 
	C178.503052,7.023549 170.718231,5.878653 163.194183,3.940943 
	C162.033447,3.642012 161.080887,2.534657 160.016022,1.400583 
	C200.354233,1.000000 240.708450,1.000000 281.531342,1.000000 
z"/>
<path fill="#F0F0F0" opacity="1.000000" stroke="none" 
	d="
M168.468658,284.000000 
	C169.569427,283.077911 171.032333,281.700500 172.724869,281.304504 
	C188.742630,277.556946 203.575043,271.191406 217.481369,262.367157 
	C235.348251,251.029755 249.611954,236.205566 260.712524,218.375580 
	C271.800720,200.565445 278.827057,181.184753 281.998810,160.266174 
	C281.998810,201.198349 281.998810,242.130508 281.999390,283.531342 
	C244.312439,284.000000 206.624878,284.000000 168.468658,284.000000 
z"/>
<path fill="#F0F0F0" opacity="1.000000" stroke="none" 
	d="
M120.562500,0.999999 
	C120.042694,1.998292 119.207146,3.703318 118.110405,3.892273 
	C84.288490,9.719336 55.939083,25.515886 33.433365,51.264370 
	C19.068125,67.699440 9.329863,86.851151 3.800297,108.059975 
	C3.365387,109.728088 2.434184,111.266808 1.366818,112.932831 
	C1.000000,76.645775 1.000000,40.291542 1.468647,3.465104 
	C37.503872,2.992070 73.070541,3.020086 108.636749,2.905778 
	C110.426521,2.900026 112.212341,1.663473 114.000000,0.999999 
	C116.041664,1.000000 118.083336,1.000000 120.562500,0.999999 
z"/>
<path fill="#F0F0F0" opacity="1.000000" stroke="none" 
	d="
M1.000000,174.468658 
	C1.801970,175.257431 3.002055,176.415192 3.345530,177.787399 
	C7.714556,195.241898 15.135933,211.364700 25.622320,225.869675 
	C46.998566,255.437744 75.608322,274.283417 111.390572,282.026337 
	C112.260017,282.214478 113.035904,282.834991 113.927711,283.626923 
	C76.407364,284.000000 38.814728,284.000000 1.000000,284.000000 
	C1.000000,247.646072 1.000000,211.291702 1.000000,174.468658 
z"/>
<path fill="#FDFDFE" opacity="1.000000" stroke="none" 
	d="
M113.531342,0.999999 
	C112.212341,1.663473 110.426521,2.900026 108.636749,2.905778 
	C73.070541,3.020086 37.503872,2.992070 1.468647,2.996446 
	C0.376609,0.532058 2.151981,1.006816 3.482818,1.005567 
	C14.108737,0.995594 24.734669,1.000000 35.360596,1.000000 
	C61.261292,1.000000 87.161987,1.000000 113.531342,0.999999 
z"/>
<path fill="#153E7C" opacity="1.000000" stroke="none" 
	d="
M199.958771,88.035492 
	C207.746368,97.953850 210.937164,108.907570 209.419342,121.034447 
	C209.009827,124.306473 210.221848,125.405495 212.890976,126.417603 
	C220.420013,129.272537 224.807556,134.930405 227.269226,142.922058 
	C222.627243,143.957581 219.461258,144.237350 216.097519,140.049805 
	C213.577850,136.913040 208.942520,134.823883 204.859604,133.751480 
	C199.115341,132.242722 198.116119,131.595291 199.600845,125.792778 
	C205.257874,103.684402 192.014038,83.708214 169.841415,80.905495 
	C153.635437,78.856979 137.373199,90.165024 132.457123,106.913658 
	C132.035278,108.350845 131.729828,109.822258 131.306091,111.258827 
	C130.270386,114.769997 127.855957,115.077301 125.093781,113.561394 
	C123.679771,112.785370 122.598007,111.392754 121.391159,110.252274 
	C114.487137,103.727943 106.174515,102.294067 97.962082,106.222778 
	C89.719528,110.165901 85.351944,117.600060 85.848785,126.841057 
	C86.262512,134.536301 86.200371,134.196442 78.371094,135.627945 
	C74.760941,136.288040 70.589218,137.763962 68.193886,140.304672 
	C64.222870,144.516678 60.758209,144.125732 55.959099,141.187683 
	C59.646221,134.769623 64.869247,130.193726 71.903366,128.185379 
	C75.709015,127.098801 76.981911,125.565361 77.312714,121.510742 
	C78.931900,101.665062 100.778580,89.432465 118.736023,98.031776 
	C120.649529,98.948112 122.508728,99.977829 124.405884,100.961555 
	C140.658707,64.838394 181.059677,64.936256 199.958771,88.035492 
z"/>
<path fill="#17407D" opacity="1.000000" stroke="none" 
	d="
M193.943207,157.032471 
	C193.941025,162.019272 194.025894,166.513351 193.918549,171.002869 
	C193.696655,180.284470 186.026367,187.170715 176.754730,186.516373 
	C167.975769,185.896805 160.858063,178.509598 161.384964,170.564621 
	C161.967941,161.774353 170.258667,155.328979 179.741791,156.320404 
	C181.350891,156.488617 182.947784,156.773392 185.091064,157.082230 
	C185.091064,153.427246 185.091064,150.165192 185.091064,147.035126 
	C193.379105,144.966537 193.942215,145.379822 193.943344,153.043900 
	C193.943512,154.208496 193.943268,155.373093 193.943207,157.032471 
M183.612900,167.108353 
	C180.541977,163.821640 176.996872,163.293900 173.341995,165.839706 
	C170.688629,167.687927 169.270828,170.392822 170.777023,173.658951 
	C172.430954,177.245499 175.370941,178.870514 179.328964,178.149063 
	C184.110519,177.277496 185.957840,173.112198 183.612900,167.108353 
z"/>
<path fill="#17407D" opacity="1.000000" stroke="none" 
	d="
M42.998024,183.055756 
	C34.810677,176.408463 32.220215,167.486237 35.570194,158.327850 
	C38.524921,150.250031 46.002415,144.722946 54.428066,145.643082 
	C58.920048,146.133621 63.201862,148.548691 68.835663,150.539337 
	C65.311409,153.670441 63.235985,155.514359 61.165840,157.353577 
	C53.916748,153.505981 49.840012,153.775772 46.053745,158.344269 
	C42.510464,162.619598 42.540958,169.261810 46.123722,173.578644 
	C49.851231,178.069870 54.114841,178.290070 61.603912,174.144958 
	C63.423851,176.066544 65.318550,178.067062 67.190681,180.043747 
	C60.491089,187.218033 52.522732,188.176102 42.998024,183.055756 
z"/>
<path fill="#DA1D24" opacity="1.000000" stroke="none" 
	d="
M219.839478,148.043045 
	C220.559402,147.488846 221.267914,146.472260 222.001083,146.454163 
	C227.485519,146.318619 232.974823,146.380447 238.918381,146.380447 
	C238.918381,149.350830 238.918381,152.040817 238.918381,154.960876 
	C235.485397,155.252411 232.140854,155.536423 228.796310,155.820435 
	C228.792755,156.420944 228.789200,157.021469 228.785645,157.621979 
	C229.938553,157.955276 231.077286,158.352585 232.246643,158.611603 
	C240.767319,160.499054 245.343475,166.497299 244.141144,174.245071 
	C242.957672,181.871231 235.268600,187.420441 227.203217,186.451492 
	C226.545624,186.372482 225.901123,186.176025 225.253937,186.020035 
	C216.635941,183.942719 216.211441,182.692413 221.830231,175.208435 
	C223.252991,175.799652 224.707733,176.530792 226.240387,177.015808 
	C229.898697,178.173584 233.328583,176.401871 233.985886,172.973740 
	C234.746033,169.009369 232.452621,166.913284 228.992783,166.256912 
	C226.948227,165.869019 224.719574,166.566483 222.580032,166.514771 
	C221.542755,166.489685 220.520004,165.864075 220.051086,165.177185 
	C220.822449,159.382675 221.042953,153.921585 221.185043,148.458450 
	C221.188339,148.331741 220.307770,148.182022 219.839478,148.043045 
z"/>
<path fill="#143E7C" opacity="1.000000" stroke="none" 
	d="
M109.008072,186.211090 
	C107.614960,186.246429 106.221855,186.281769 104.198509,185.977356 
	C101.677818,185.135651 99.787369,184.633682 97.896912,184.131714 
	C90.451729,178.540100 88.327728,171.877945 91.722282,164.764359 
	C94.836609,158.238037 103.037056,154.803848 110.867310,156.746811 
	C118.431252,158.623688 123.213516,164.864029 122.662437,172.435562 
	C122.203094,178.746796 118.488861,182.702393 112.198654,185.151535 
	C110.681686,185.525909 109.844879,185.868515 109.008072,186.211090 
M99.005203,170.678497 
	C99.064796,171.336761 99.023026,172.023819 99.200562,172.648575 
	C100.297615,176.509399 102.872063,178.517395 106.896080,178.257919 
	C110.608566,178.018539 113.732071,176.009827 113.644073,172.319748 
	C113.585304,169.855255 111.756821,166.558380 109.691750,165.214188 
	C106.301094,163.007111 102.646118,164.264252 100.122887,167.658432 
	C99.644615,168.301788 99.440102,169.148666 99.005203,170.678497 
z"/>
<path fill="#17407D" opacity="1.000000" stroke="none" 
	d="
M138.447891,158.765106 
	C138.563797,163.838303 138.263229,168.527542 138.764328,173.129486 
	C138.956604,174.895355 140.977661,176.462067 142.165390,178.119537 
	C143.329285,176.425354 145.335693,174.807236 145.496811,173.022507 
	C145.953964,167.958374 145.657043,162.826157 145.657043,157.862610 
	C154.473297,156.368759 154.629883,156.457321 154.569122,164.323502 
	C154.535812,168.637375 154.685364,173.001633 154.089508,177.250214 
	C153.279327,183.026871 148.576660,186.377213 142.205200,186.420578 
	C135.986816,186.462906 130.853928,183.433990 130.269897,177.992981 
	C129.553604,171.319870 130.099106,164.511337 130.099106,156.857758 
	C133.113693,157.401550 135.732437,157.873947 138.447891,158.765106 
z"/>
<path fill="#133C7C" opacity="1.000000" stroke="none" 
	d="
M77.367798,146.425568 
	C81.906128,145.702820 83.734375,146.892731 83.555534,151.610458 
	C83.184990,161.385193 83.331131,171.185837 83.506981,180.971466 
	C83.566582,184.287781 82.773247,185.773941 79.126411,185.696106 
	C75.884026,185.626923 74.346352,185.011246 74.429558,181.293564 
	C74.659660,171.012146 74.422050,160.720566 74.620720,150.437851 
	C74.646782,149.089279 76.141640,147.769058 77.367798,146.425568 
z"/>
<path fill="#DB272E" opacity="1.000000" stroke="none" 
	d="
M201.783127,159.046463 
	C203.908813,158.403412 206.010651,157.483749 208.175705,157.296921 
	C208.774414,157.245255 210.143585,159.361237 210.168365,160.504135 
	C210.343979,168.604095 210.261810,176.709641 210.261810,185.433258 
	C206.936264,184.701996 203.041092,188.552460 201.931839,182.226105 
	C202.202652,175.043976 201.967300,168.435486 201.731964,161.827011 
	C201.637634,161.444870 201.543289,161.062714 201.789795,160.301483 
	C202.234009,159.815872 202.337387,159.709366 202.440750,159.602844 
	C202.221542,159.417389 202.002335,159.231918 201.783127,159.046463 
M207.615341,183.519577 
	C207.615341,183.519577 207.448151,183.423141 207.448151,183.423141 
	C207.448151,183.423141 207.471115,183.612595 207.615341,183.519577 
z"/>
<path fill="#DB2C31" opacity="1.000000" stroke="none" 
	d="
M201.411987,147.208344 
	C203.574966,146.320755 205.669128,145.117828 207.557755,145.382339 
	C208.618942,145.530975 210.089478,148.148529 210.005188,149.572678 
	C209.920349,151.005997 208.423294,152.884827 207.042130,153.608292 
	C203.576111,155.423843 200.892349,152.474686 201.411987,147.208344 
z"/>
<path fill="#D50107" opacity="1.000000" stroke="none" 
	d="
M219.698807,148.489899 
	C220.307770,148.182022 221.188339,148.331741 221.185043,148.458450 
	C221.042953,153.921585 220.822449,159.382675 220.193756,164.891052 
	C219.703384,159.604294 219.630753,154.270523 219.698807,148.489899 
z"/>
<path fill="#D40205" opacity="1.000000" stroke="none" 
	d="
M201.639816,162.301605 
	C201.967300,168.435486 202.202652,175.043976 202.083435,181.922256 
	C201.668472,175.720108 201.608063,169.248138 201.639816,162.301605 
z"/>
<path fill="#99A7BD" opacity="1.000000" stroke="none" 
	d="
M97.976959,184.456650 
	C99.787369,184.633682 101.677818,185.135651 103.782013,185.929214 
	C102.016167,185.741074 100.036583,185.261322 97.976959,184.456650 
z"/>
<path fill="#99A7BD" opacity="1.000000" stroke="none" 
	d="
M109.196091,186.431000 
	C109.844879,185.868515 110.681686,185.525909 111.869148,185.280548 
	C111.274574,185.802170 110.329338,186.226532 109.196091,186.431000 
z"/>
<path fill="#D40205" opacity="1.000000" stroke="none" 
	d="
M201.687683,159.316833 
	C202.002335,159.231918 202.221542,159.417389 202.440750,159.602844 
	C202.337387,159.709366 202.234009,159.815872 201.931961,160.032700 
	C201.686279,159.957748 201.639252,159.772476 201.687683,159.316833 
z"/>
<path fill="#EDF0F3" opacity="1.000000" stroke="none" 
	d="
M183.831543,167.430237 
	C185.957840,173.112198 184.110519,177.277496 179.328964,178.149063 
	C175.370941,178.870514 172.430954,177.245499 170.777023,173.658951 
	C169.270828,170.392822 170.688629,167.687927 173.341995,165.839706 
	C176.996872,163.293900 180.541977,163.821640 183.831543,167.430237 
z"/>
<path fill="#EBEEF2" opacity="1.000000" stroke="none" 
	d="
M99.057236,170.290070 
	C99.440102,169.148666 99.644615,168.301788 100.122887,167.658432 
	C102.646118,164.264252 106.301094,163.007111 109.691750,165.214188 
	C111.756821,166.558380 113.585304,169.855255 113.644073,172.319748 
	C113.732071,176.009827 110.608566,178.018539 106.896080,178.257919 
	C102.872063,178.517395 100.297615,176.509399 99.200562,172.648575 
	C99.023026,172.023819 99.064796,171.336761 99.057236,170.290070 
z"/>
<path fill="#D40205" opacity="1.000000" stroke="none" 
	d="
M207.543228,183.566086 
	C207.471115,183.612595 207.448151,183.423141 207.448151,183.423141 
	C207.448151,183.423141 207.615341,183.519577 207.543228,183.566086 
z"/>
</svg>